<mxfile host="app.diagrams.net" modified="2023-12-15T17:46:20.944Z" agent="Mozilla/5.0 (Windows NT 10.0; Win64; x64) AppleWebKit/537.36 (KHTML, like Gecko) Chrome/120.0.0.0 Safari/537.36" etag="fvWTVlMIwIGxVGyVKWuK" version="22.1.11" type="device">
  <diagram name="Page-1" id="7Z79qbQLbXw0UE24miQo">
    <mxGraphModel dx="1114" dy="600" grid="1" gridSize="10" guides="1" tooltips="1" connect="1" arrows="1" fold="1" page="1" pageScale="1" pageWidth="827" pageHeight="1169" math="0" shadow="0">
      <root>
        <mxCell id="0" />
        <mxCell id="1" parent="0" />
        <mxCell id="qqBtZDu-3wRFoANrSNu9-3" value="" style="edgeStyle=orthogonalEdgeStyle;rounded=0;orthogonalLoop=1;jettySize=auto;html=1;" edge="1" parent="1" source="ODTJBzy8pAV4IOONmEEZ-1" target="qqBtZDu-3wRFoANrSNu9-2">
          <mxGeometry relative="1" as="geometry" />
        </mxCell>
        <mxCell id="ODTJBzy8pAV4IOONmEEZ-1" value="START" style="ellipse;whiteSpace=wrap;html=1;" parent="1" vertex="1">
          <mxGeometry x="70" y="30" width="120" height="80" as="geometry" />
        </mxCell>
        <mxCell id="qqBtZDu-3wRFoANrSNu9-1" value="END" style="ellipse;whiteSpace=wrap;html=1;" vertex="1" parent="1">
          <mxGeometry x="70" y="410" width="120" height="80" as="geometry" />
        </mxCell>
        <mxCell id="qqBtZDu-3wRFoANrSNu9-5" value="" style="edgeStyle=orthogonalEdgeStyle;rounded=0;orthogonalLoop=1;jettySize=auto;html=1;" edge="1" parent="1" source="qqBtZDu-3wRFoANrSNu9-2" target="qqBtZDu-3wRFoANrSNu9-4">
          <mxGeometry relative="1" as="geometry" />
        </mxCell>
        <mxCell id="qqBtZDu-3wRFoANrSNu9-2" value="X, Y" style="shape=parallelogram;perimeter=parallelogramPerimeter;whiteSpace=wrap;html=1;fixedSize=1;" vertex="1" parent="1">
          <mxGeometry x="70" y="150" width="120" height="60" as="geometry" />
        </mxCell>
        <mxCell id="qqBtZDu-3wRFoANrSNu9-6" value="" style="edgeStyle=orthogonalEdgeStyle;rounded=0;orthogonalLoop=1;jettySize=auto;html=1;" edge="1" parent="1" source="qqBtZDu-3wRFoANrSNu9-4" target="qqBtZDu-3wRFoANrSNu9-1">
          <mxGeometry relative="1" as="geometry" />
        </mxCell>
        <mxCell id="qqBtZDu-3wRFoANrSNu9-4" value="X = X ^ Y&lt;br&gt;Y = X ^ Y&lt;br&gt;X = X ^ Y" style="whiteSpace=wrap;html=1;" vertex="1" parent="1">
          <mxGeometry x="70" y="290" width="120" height="60" as="geometry" />
        </mxCell>
        <mxCell id="qqBtZDu-3wRFoANrSNu9-10" value="" style="edgeStyle=orthogonalEdgeStyle;rounded=0;orthogonalLoop=1;jettySize=auto;html=1;" edge="1" parent="1" source="qqBtZDu-3wRFoANrSNu9-7" target="qqBtZDu-3wRFoANrSNu9-9">
          <mxGeometry relative="1" as="geometry" />
        </mxCell>
        <mxCell id="qqBtZDu-3wRFoANrSNu9-7" value="START" style="ellipse;whiteSpace=wrap;html=1;" vertex="1" parent="1">
          <mxGeometry x="520" y="30" width="120" height="80" as="geometry" />
        </mxCell>
        <mxCell id="qqBtZDu-3wRFoANrSNu9-8" value="END" style="ellipse;whiteSpace=wrap;html=1;" vertex="1" parent="1">
          <mxGeometry x="520" y="410" width="120" height="80" as="geometry" />
        </mxCell>
        <mxCell id="qqBtZDu-3wRFoANrSNu9-12" value="" style="edgeStyle=orthogonalEdgeStyle;rounded=0;orthogonalLoop=1;jettySize=auto;html=1;" edge="1" parent="1" source="qqBtZDu-3wRFoANrSNu9-9">
          <mxGeometry relative="1" as="geometry">
            <mxPoint x="580" y="290" as="targetPoint" />
            <Array as="points">
              <mxPoint x="580" y="270" />
              <mxPoint x="581" y="270" />
            </Array>
          </mxGeometry>
        </mxCell>
        <mxCell id="qqBtZDu-3wRFoANrSNu9-9" value="X, Y, TEMP" style="shape=parallelogram;perimeter=parallelogramPerimeter;whiteSpace=wrap;html=1;fixedSize=1;" vertex="1" parent="1">
          <mxGeometry x="520" y="170" width="120" height="60" as="geometry" />
        </mxCell>
        <mxCell id="qqBtZDu-3wRFoANrSNu9-14" value="" style="edgeStyle=orthogonalEdgeStyle;rounded=0;orthogonalLoop=1;jettySize=auto;html=1;" edge="1" parent="1" source="qqBtZDu-3wRFoANrSNu9-13" target="qqBtZDu-3wRFoANrSNu9-8">
          <mxGeometry relative="1" as="geometry" />
        </mxCell>
        <mxCell id="qqBtZDu-3wRFoANrSNu9-13" value="TEMP = X&lt;br&gt;X = Y&lt;br&gt;Y = TEMP" style="rounded=0;whiteSpace=wrap;html=1;" vertex="1" parent="1">
          <mxGeometry x="520" y="290" width="120" height="60" as="geometry" />
        </mxCell>
        <mxCell id="qqBtZDu-3wRFoANrSNu9-17" value="" style="edgeStyle=orthogonalEdgeStyle;rounded=0;orthogonalLoop=1;jettySize=auto;html=1;" edge="1" parent="1" source="qqBtZDu-3wRFoANrSNu9-15" target="qqBtZDu-3wRFoANrSNu9-16">
          <mxGeometry relative="1" as="geometry" />
        </mxCell>
        <mxCell id="qqBtZDu-3wRFoANrSNu9-15" value="START" style="ellipse;whiteSpace=wrap;html=1;" vertex="1" parent="1">
          <mxGeometry x="950" y="30" width="120" height="80" as="geometry" />
        </mxCell>
        <mxCell id="qqBtZDu-3wRFoANrSNu9-19" value="" style="edgeStyle=orthogonalEdgeStyle;rounded=0;orthogonalLoop=1;jettySize=auto;html=1;entryX=0.5;entryY=0;entryDx=0;entryDy=0;" edge="1" parent="1" source="qqBtZDu-3wRFoANrSNu9-16" target="qqBtZDu-3wRFoANrSNu9-29">
          <mxGeometry relative="1" as="geometry">
            <mxPoint x="900" y="270" as="targetPoint" />
          </mxGeometry>
        </mxCell>
        <mxCell id="qqBtZDu-3wRFoANrSNu9-16" value="X, Y, Z, MIN, MAX" style="shape=parallelogram;perimeter=parallelogramPerimeter;whiteSpace=wrap;html=1;fixedSize=1;" vertex="1" parent="1">
          <mxGeometry x="950" y="160" width="120" height="60" as="geometry" />
        </mxCell>
        <mxCell id="qqBtZDu-3wRFoANrSNu9-31" value="" style="edgeStyle=orthogonalEdgeStyle;rounded=0;orthogonalLoop=1;jettySize=auto;html=1;" edge="1" parent="1" source="qqBtZDu-3wRFoANrSNu9-29" target="qqBtZDu-3wRFoANrSNu9-30">
          <mxGeometry relative="1" as="geometry" />
        </mxCell>
        <mxCell id="qqBtZDu-3wRFoANrSNu9-29" value="MAX = X&lt;br&gt;MIN = X" style="rounded=0;whiteSpace=wrap;html=1;" vertex="1" parent="1">
          <mxGeometry x="950" y="270" width="120" height="60" as="geometry" />
        </mxCell>
        <mxCell id="qqBtZDu-3wRFoANrSNu9-33" value="TRUE" style="edgeStyle=orthogonalEdgeStyle;rounded=0;orthogonalLoop=1;jettySize=auto;html=1;" edge="1" parent="1" source="qqBtZDu-3wRFoANrSNu9-30" target="qqBtZDu-3wRFoANrSNu9-32">
          <mxGeometry relative="1" as="geometry" />
        </mxCell>
        <mxCell id="qqBtZDu-3wRFoANrSNu9-37" value="FALSE" style="edgeStyle=orthogonalEdgeStyle;rounded=0;orthogonalLoop=1;jettySize=auto;html=1;" edge="1" parent="1" source="qqBtZDu-3wRFoANrSNu9-30" target="qqBtZDu-3wRFoANrSNu9-36">
          <mxGeometry relative="1" as="geometry" />
        </mxCell>
        <mxCell id="qqBtZDu-3wRFoANrSNu9-30" value="Y &amp;gt; MAX" style="rhombus;whiteSpace=wrap;html=1;rounded=0;" vertex="1" parent="1">
          <mxGeometry x="810" y="370" width="180" height="80" as="geometry" />
        </mxCell>
        <mxCell id="qqBtZDu-3wRFoANrSNu9-32" value="Y is maximum" style="shape=document;whiteSpace=wrap;html=1;boundedLbl=1;rounded=0;" vertex="1" parent="1">
          <mxGeometry x="650" y="370" width="120" height="80" as="geometry" />
        </mxCell>
        <mxCell id="qqBtZDu-3wRFoANrSNu9-39" value="TRUE" style="edgeStyle=orthogonalEdgeStyle;rounded=0;orthogonalLoop=1;jettySize=auto;html=1;" edge="1" parent="1" source="qqBtZDu-3wRFoANrSNu9-36" target="qqBtZDu-3wRFoANrSNu9-38">
          <mxGeometry relative="1" as="geometry" />
        </mxCell>
        <mxCell id="qqBtZDu-3wRFoANrSNu9-52" value="" style="edgeStyle=orthogonalEdgeStyle;rounded=0;orthogonalLoop=1;jettySize=auto;html=1;" edge="1" parent="1" source="qqBtZDu-3wRFoANrSNu9-36" target="qqBtZDu-3wRFoANrSNu9-51">
          <mxGeometry relative="1" as="geometry" />
        </mxCell>
        <mxCell id="qqBtZDu-3wRFoANrSNu9-36" value="Z &amp;gt; MAX" style="rhombus;whiteSpace=wrap;html=1;rounded=0;" vertex="1" parent="1">
          <mxGeometry x="810" y="480" width="180" height="80" as="geometry" />
        </mxCell>
        <mxCell id="qqBtZDu-3wRFoANrSNu9-38" value="Z is maximum" style="shape=document;whiteSpace=wrap;html=1;boundedLbl=1;rounded=0;" vertex="1" parent="1">
          <mxGeometry x="650" y="480" width="120" height="80" as="geometry" />
        </mxCell>
        <mxCell id="qqBtZDu-3wRFoANrSNu9-41" value="FALSE" style="edgeStyle=orthogonalEdgeStyle;rounded=0;orthogonalLoop=1;jettySize=auto;html=1;" edge="1" parent="1" source="qqBtZDu-3wRFoANrSNu9-42" target="qqBtZDu-3wRFoANrSNu9-45">
          <mxGeometry relative="1" as="geometry" />
        </mxCell>
        <mxCell id="qqBtZDu-3wRFoANrSNu9-50" value="" style="edgeStyle=orthogonalEdgeStyle;rounded=0;orthogonalLoop=1;jettySize=auto;html=1;" edge="1" parent="1" source="qqBtZDu-3wRFoANrSNu9-42" target="qqBtZDu-3wRFoANrSNu9-47">
          <mxGeometry relative="1" as="geometry" />
        </mxCell>
        <mxCell id="qqBtZDu-3wRFoANrSNu9-42" value="Y &amp;lt; MIN" style="rhombus;whiteSpace=wrap;html=1;rounded=0;" vertex="1" parent="1">
          <mxGeometry x="1030" y="370" width="180" height="80" as="geometry" />
        </mxCell>
        <mxCell id="qqBtZDu-3wRFoANrSNu9-49" value="" style="edgeStyle=orthogonalEdgeStyle;rounded=0;orthogonalLoop=1;jettySize=auto;html=1;" edge="1" parent="1" source="qqBtZDu-3wRFoANrSNu9-45" target="qqBtZDu-3wRFoANrSNu9-48">
          <mxGeometry relative="1" as="geometry" />
        </mxCell>
        <mxCell id="qqBtZDu-3wRFoANrSNu9-54" value="" style="edgeStyle=orthogonalEdgeStyle;rounded=0;orthogonalLoop=1;jettySize=auto;html=1;" edge="1" parent="1" source="qqBtZDu-3wRFoANrSNu9-45" target="qqBtZDu-3wRFoANrSNu9-53">
          <mxGeometry relative="1" as="geometry" />
        </mxCell>
        <mxCell id="qqBtZDu-3wRFoANrSNu9-45" value="Z &amp;lt; MIN" style="rhombus;whiteSpace=wrap;html=1;rounded=0;" vertex="1" parent="1">
          <mxGeometry x="1030" y="480" width="180" height="80" as="geometry" />
        </mxCell>
        <mxCell id="qqBtZDu-3wRFoANrSNu9-47" value="Y is minimum" style="shape=document;whiteSpace=wrap;html=1;boundedLbl=1;rounded=0;" vertex="1" parent="1">
          <mxGeometry x="1241" y="370" width="120" height="80" as="geometry" />
        </mxCell>
        <mxCell id="qqBtZDu-3wRFoANrSNu9-48" value="Z is minimum" style="shape=document;whiteSpace=wrap;html=1;boundedLbl=1;rounded=0;" vertex="1" parent="1">
          <mxGeometry x="1241" y="480" width="120" height="80" as="geometry" />
        </mxCell>
        <mxCell id="qqBtZDu-3wRFoANrSNu9-51" value="X is maximum" style="shape=document;whiteSpace=wrap;html=1;boundedLbl=1;rounded=0;" vertex="1" parent="1">
          <mxGeometry x="840" y="610" width="120" height="80" as="geometry" />
        </mxCell>
        <mxCell id="qqBtZDu-3wRFoANrSNu9-53" value="X is minimum" style="shape=document;whiteSpace=wrap;html=1;boundedLbl=1;rounded=0;" vertex="1" parent="1">
          <mxGeometry x="1060" y="610" width="120" height="80" as="geometry" />
        </mxCell>
        <mxCell id="qqBtZDu-3wRFoANrSNu9-55" style="edgeStyle=orthogonalEdgeStyle;rounded=0;orthogonalLoop=1;jettySize=auto;html=1;entryX=0.467;entryY=-0.025;entryDx=0;entryDy=0;entryPerimeter=0;" edge="1" parent="1" source="qqBtZDu-3wRFoANrSNu9-29" target="qqBtZDu-3wRFoANrSNu9-42">
          <mxGeometry relative="1" as="geometry">
            <Array as="points">
              <mxPoint x="1010" y="350" />
              <mxPoint x="1120" y="350" />
              <mxPoint x="1120" y="368" />
            </Array>
          </mxGeometry>
        </mxCell>
        <mxCell id="qqBtZDu-3wRFoANrSNu9-56" value="END" style="ellipse;whiteSpace=wrap;html=1;" vertex="1" parent="1">
          <mxGeometry x="940" y="740" width="120" height="80" as="geometry" />
        </mxCell>
      </root>
    </mxGraphModel>
  </diagram>
</mxfile>
